<svg id="Layer_1" data-name="Layer 1" xmlns="http://www.w3.org/2000/svg" viewBox="0 0 134.15 134.15">
  <title>General_1</title>
  <g>
    <circle cx="67.07" cy="67.07" r="67.06" fill="#edf1ff"/>
    <g>
      <path d="M103.67,92.26c-1.72-3.5-4.91-6.62-7.09-9.5-4.7-6.19-9.48-12.33-14-18.65-3.18-4.45-6.37-9.47-7-15s-.3-11-.12-16.45c0-.76.53-3.37.1-4s-.61-.45-1.38-.39c-1,.08-2.26-.05-3.3-.05H61.76c-.46,0-4.74-.38-4.95,0-.64,1.11,0,4.52,0,5.83,0,2.23,0,4.45,0,6.68,0,3.81.58,8.12-.24,11.85-.86,3.93-3.65,7.14-5.9,10.35-6.2,8.8-12,17.85-18.09,26.76-2.2,3.25-4.37,6.31-2.9,10.38a8.38,8.38,0,0,0,7.85,5.51H96.88c4.45,0,7.59-3.5,8-7.78A10.31,10.31,0,0,0,103.67,92.26Z" fill="#fff"/>
      <path d="M60.49,64.72a2.33,2.33,0,0,1-1.09-1.08c-1.19-2.32,1.35-6,3.91-5.87a3.5,3.5,0,0,1,2.25,5.85A4.86,4.86,0,0,1,60.49,64.72Z" fill="#4dcbf0"/>
      <path d="M70,51a2,2,0,0,1-1.18.61c-2.22.34-4.59-2.76-3.75-4.81a3,3,0,0,1,5.41-.25A4.18,4.18,0,0,1,70,51Z" fill="#ff8586"/>
      <path d="M78.15,69.38a2.42,2.42,0,0,1-1.38.71c-2.6.39-5.36-3.22-4.38-5.61a3.54,3.54,0,0,1,6.32-.3A4.89,4.89,0,0,1,78.15,69.38Z" fill="#ff8586"/>
      <path d="M42.32,74.24s31.49-2.4,37.31-1a36.81,36.81,0,0,0,9.24,1.2l14.37,16.77s2.57,6.16.69,9.76-3.66,4-7.05,4.65-53.88.48-53.88.48l-7-.34s-6.85-1.54-6.68-7.36,8.05-15.92,8.05-15.92Z" fill="#ff8586"/>
      <path d="M103.67,92.26c-1.72-3.5-4.91-6.62-7.09-9.5-4.7-6.19-9.48-12.33-14-18.65-3.18-4.45-6.37-9.47-7-15s-.3-11-.12-16.45c0-.76.53-3.37.1-4s-.5-.26-1.17-.44a15.26,15.26,0,0,0-3.51,0H61.76c-.46,0-4.74-.38-4.95,0-.64,1.11,0,4.52,0,5.83,0,2.23,0,4.45,0,6.68,0,3.81.58,8.12-.24,11.85-.86,3.93-3.65,7.14-5.9,10.35-6.2,8.8-12,17.85-18.09,26.76-2.2,3.25-4.37,6.31-2.9,10.38a8.38,8.38,0,0,0,7.85,5.51H96.88c4.45,0,7.59-3.5,8-7.78A10.31,10.31,0,0,0,103.67,92.26Z" fill="none" stroke="#66687a" stroke-miterlimit="10" stroke-width="2"/>
    </g>
  </g>
</svg>
