<svg id="Layer_1" data-name="Layer 1" xmlns="http://www.w3.org/2000/svg" xmlns:xlink="http://www.w3.org/1999/xlink" viewBox="0 0 134.13 134.13">
  <defs>
    <clipPath id="clip-path">
      <circle cx="67.06" cy="67" r="67" fill="none"/>
    </clipPath>
  </defs>
  <title>HbA1c</title>
  <g>
    <circle cx="67.06" cy="67.06" r="67.06" fill="#edf1ff"/>
    <g clip-path="url(#clip-path)">
      <path d="M43.34,132.67c-.75-11-16.29-9.34-19.7-19.22-1.84-5.33-1.79-12.34-2.39-17.89-.69-6.42-2.51-15.83,1.66-21.51,3.08-4.18,6.64.69,10.22-.15s5.28-4.73,8.12-6.81C45.74,63.8,49,69.65,53,70.68,59.68,72.41,59.92,65,64.79,63c4-1.63,4.9,2.64,7.85,4.12,6.5,3.26,6.08-6.92,6.07-10.43,0-3.11-.24-6.32,0-9.4.45-5.09.43-10.15.76-15.25.22-3.33.17-8,2.25-10.81.76-1,2.91-1.5,4.15-1.45C95.06,20.23,96.25,27,96,33.12c-.14,3.31,0,6.63-.08,10-.22,10.27-.86,20.33-.86,30.57,0,7.18.64,14.36.55,21.51,0,1.82,1.89.2,2.47-.21a5.07,5.07,0,0,0,1.11-2.35c1.73-5.81,1.26-12.1,3.35-17.81,1.58-4.32,9-9.24,10.6-2.75,1.1,4.43.32,9.11.49,13.61.23,6.15,1.74,12.46.83,18.6-1.35,9.14-11,11.67-17.23,16.56-3.34,2.61-11.41,7.53-8.58,11.77" fill="#fff" stroke="#66687a" stroke-miterlimit="10" stroke-width="2"/>
      <path d="M67,1A66,66,0,1,1,1,67,66.11,66.11,0,0,1,67,1m0-1a67,67,0,1,0,67,67A67,67,0,0,0,67,0Z" fill="#edf1ff"/>
    </g>
    <path d="M105.13,44.66c0,8.55-4.68,12.06-10.46,12.06S84.22,53.21,84.22,44.66,94.67,25.75,94.67,25.75,105.13,36.11,105.13,44.66Z" fill="#ff8586"/>
  </g>
</svg>
