<svg id="Layer_1" data-name="Layer 1" xmlns="http://www.w3.org/2000/svg" viewBox="0 0 134.13 134.13">
  <title>Iron def</title>
  <g>
    <circle cx="67.06" cy="67.06" r="67.06" fill="#edf1ff"/>
    <g>
      <g>
        <path d="M97.82,102.93a15.94,15.94,0,0,1-3.59-.41A15.33,15.33,0,0,1,84,93.72a14.52,14.52,0,0,1,.25-13c2.63-4.84,7.9-10,14.8-10,9.31,0,15.26,8.43,15.44,16.24a14.82,14.82,0,0,1-4.36,10.72A17.29,17.29,0,0,1,97.82,102.93Z" fill="#fff"/>
        <path d="M99,71.84a13.57,13.57,0,0,1,10.13,4.64A16.48,16.48,0,0,1,113.37,87a13.68,13.68,0,0,1-4,9.92,16.43,16.43,0,0,1-11.51,4.9,14.39,14.39,0,0,1-3.34-.39A14.23,14.23,0,0,1,85,93.28a13.48,13.48,0,0,1,.21-12c3.79-7,9.63-9.43,13.84-9.44h0m0-2.18h0c-6.82,0-12.63,4.82-15.76,10.58-4.9,9,.86,21,10.71,23.34a16.71,16.71,0,0,0,3.84.45c9.2,0,18-7.39,17.74-17.06-.2-8.81-7-17.31-16.52-17.31Z" fill="#66687a"/>
      </g>
      <path d="M99.68,92l.13-13a1.56,1.56,0,0,0-1.6-1.58h0A1.56,1.56,0,0,0,96.67,79l-.09,12.62-4.82-4.19a1.51,1.51,0,0,0-2,0l0,0a1.5,1.5,0,0,0,0,2.25l6.81,6.24a2.31,2.31,0,0,0,3.08,0l6.49-5.8a1.5,1.5,0,0,0,0-2.28h0a1.51,1.51,0,0,0-2,.06Z" fill="#4dcbf0"/>
    </g>
    <g>
      <g>
        <path d="M102.28,52.11a13.58,13.58,0,0,1-1.59,8.55,16.65,16.65,0,0,1-29.63-2.53c-2.4-6,.12-15.14,5.24-19.27a17.23,17.23,0,0,1,12.89-3.72C96,36.2,101.46,44.47,102.28,52.11Z" fill="#ff8586"/>
        <path d="M96.83,51.93c0,3.43-5.13,12.62-9.56,11.44-2.27-.61,1.58-3.67,2.2-4.23,2.27-2,3.93-4.14,3.93-7.42a7.46,7.46,0,0,0-2-5.47c-1.43-1.31-3.72-1.29-5-2.86-2.06-2.59,5-.41,5.86.13A9.6,9.6,0,0,1,96.83,51.93Z" fill="#de5051"/>
      </g>
      <g>
        <path d="M63.29,45.28a18.18,18.18,0,0,1-1.85,9.88c-2.47,4.79-5.75,7.72-11.35,8-6.18.28-12.82-.57-18.1-4-4.87-3.21-6.9-8.69-6.11-14.36.39-2.8.7-6.64,1.89-9.2,3.14-6.75,10.39-10.34,17.61-9.69,3.75.34,9.45,2.51,11.94,5.4A25,25,0,0,1,63.29,45.28Z" fill="#ff8586"/>
        <path d="M57,45.11a11.33,11.33,0,0,1-3.9,8.9c-1.66,1.39-3.87,2.9-6.09,3a1.8,1.8,0,0,1-1-.15.77.77,0,0,1-.41-.83,1.1,1.1,0,0,1,.36-.47c1.23-1.13,2.84-1.8,4.05-2.91,2.08-1.93,2.94-5,2.94-7.82s-1.17-6.26-3.59-7.65c-1-.59-4.42-.86-3.05-2.92,1.1-1.65,4.05.13,5.18.81A11.28,11.28,0,0,1,57,45.11Z" fill="#de5051"/>
      </g>
      <g>
        <path d="M78,86.32c.07,7-5.42,16.49-13.54,16-7.18-.42-15.34-2.57-17.43-10.44-1.71-6.47-.79-15.31,4.55-19.89,2.33-2,6.06-2,9-1.82C68.67,70.85,78,73.65,78,83.57,78,84.48,78,85.4,78,86.32Z" fill="#ff8586"/>
        <path d="M41.37,78l-.35.21c-3,1.64-8.08,1.62-8.9-2.56a5.33,5.33,0,0,1,3.48-5.79,6.53,6.53,0,0,1,6.73,1.79C44.4,73.8,43.79,76.46,41.37,78Z" fill="#ff8586"/>
        <path d="M76.85,29.9l-.35.2c-3,1.65-8.08,1.62-8.9-2.56a5.34,5.34,0,0,1,3.48-5.79,6.55,6.55,0,0,1,6.73,1.79C79.89,25.74,79.27,28.41,76.85,29.9Z" fill="#ff8586"/>
        <path d="M81.79,115.23l-.35.21c-3,1.64-8.08,1.61-8.9-2.56A5.33,5.33,0,0,1,76,107.09a6.55,6.55,0,0,1,6.73,1.78C84.83,111.08,84.21,113.74,81.79,115.23Z" fill="#ff8586"/>
        <path d="M73.46,86.86c0,3-1.81,5.55-3.88,7.59-1,.93-5.39,5.46-6.56,3-.81-1.71,3-3.07,3.92-3.79a9,9,0,0,0,3.09-7c0-2.67-1.24-5.57-3.57-6.82-.8-.42-2.71-.32-2.29-1.76.7-2.41,5.1.49,6,1.28A9.63,9.63,0,0,1,73.46,86.86Z" fill="#de5051"/>
      </g>
    </g>
  </g>
</svg>
