<svg id="Layer_1" data-name="Layer 1" xmlns="http://www.w3.org/2000/svg" xmlns:xlink="http://www.w3.org/1999/xlink" viewBox="0 0 134.13 134.13">
  <defs>
    <clipPath id="clip-path">
      <circle cx="67.06" cy="67.06" r="67.06" fill="none"/>
    </clipPath>
  </defs>
  <title>Liver</title>
  <g>
    <circle cx="67.06" cy="67.06" r="67.06" fill="#edf1ff"/>
    <g clip-path="url(#clip-path)">
      <g>
        <path d="M62.1,113.71c5.87-1.22,12.06-4.93,18.09-4.23,17.16,2-7.1,28.68,2.29,31.14,7.11,1.86,13.6-12.3,15.14-17.12,2.94-9.23,2.58-20.22-6.89-25.16-8-4.19-16.23.42-24.36,1.44-12.7,1.57-.9-8.09-6.66-13.31-2.43-2.21-7,1.91-9.46,2.7a26,26,0,0,0-2.48,1.12c-.39.62.16,2.19.24,2.72,1,6.7-.34,19.23,8.66,20.89A14.05,14.05,0,0,0,62.1,113.71Z" fill="#ff8586"/>
        <g>
          <path d="M31.42,111.06c-5.76,0-10.87-3.32-12.42-8.07a24.13,24.13,0,0,1-1.07-5.08c-.73-7.19,1.52-14.51,3.7-21.59.42-1.38.85-2.75,1.24-4.11a93,93,0,0,0,2.38-12.07C26.66,50.79,28,42,35.42,35.52A24.31,24.31,0,0,1,52,29.46c6.9,0,14.14,2.2,21.14,4.34,2.08.63,4.24,1.29,6.33,1.87,5,1.4,10.32,2.45,15.43,3.46a161.77,161.77,0,0,1,19.32,4.63l.14.05c4,1.33,10.13,3.35,11.76,7.64,1.31,3.46-3.37,7-6.28,8.8a40.74,40.74,0,0,1-12.28,5.54,9.1,9.1,0,0,1-2,.21,27.44,27.44,0,0,1-2.81-.19c-1-.09-2-.2-3-.2a11.34,11.34,0,0,0-2.42.24c-3.61.79-5,3.61-6.21,6.11a16.82,16.82,0,0,1-1.9,3.26C87.88,76.86,86,77.73,84,78.65a26.8,26.8,0,0,0-3.41,1.75,42.7,42.7,0,0,0-6,4.93,39.23,39.23,0,0,1-5.88,4.8,25.18,25.18,0,0,1-7.94,2.75,47.24,47.24,0,0,0-5,1.36c-5.06,1.78-8.29,5.43-11.41,9a52.1,52.1,0,0,1-5,5.18A11.86,11.86,0,0,1,31.42,111.06Z" fill="#fff"/>
          <path d="M52,28.46v2h0c6.75,0,13.92,2.18,20.85,4.3,2.09.63,4.25,1.29,6.35,1.87,5.08,1.41,10.38,2.46,15.51,3.48a161.61,161.61,0,0,1,19.19,4.6l.15,0c3.85,1.28,9.68,3.2,11.14,7.05,1.09,2.88-3.75,6.27-5.88,7.59a39.75,39.75,0,0,1-12,5.42,8.4,8.4,0,0,1-1.83.18c-.87,0-1.76-.09-2.71-.18a30.81,30.81,0,0,0-3.09-.21,12.67,12.67,0,0,0-2.63.26c-4.09.89-5.65,4.09-6.9,6.65a16.84,16.84,0,0,1-1.77,3.07,13.08,13.08,0,0,1-4.9,3.15A28.88,28.88,0,0,0,80,79.55a43.83,43.83,0,0,0-6.18,5,38.65,38.65,0,0,1-5.73,4.68,24.53,24.53,0,0,1-7.63,2.63,44.46,44.46,0,0,0-5.16,1.39c-5.31,1.87-8.62,5.61-11.83,9.23a51.25,51.25,0,0,1-4.92,5.08,10.9,10.9,0,0,1-7.14,2.45c-4.36,0-9.82-2.31-11.47-7.38a22.9,22.9,0,0,1-1-4.87c-.71-7,1.51-14.21,3.66-21.19.42-1.39.85-2.77,1.24-4.13a92.63,92.63,0,0,0,2.41-12.2c1.38-9.17,2.69-17.82,9.83-24a23.36,23.36,0,0,1,16-5.82v-2m0,0a25.24,25.24,0,0,0-17.28,6.31c-11,9.56-9.12,24.37-12.85,37.16C19.49,80.25,16,89.18,16.94,98A25.33,25.33,0,0,0,18,103.3c1.82,5.56,7.68,8.76,13.38,8.76a12.84,12.84,0,0,0,8.44-2.93c5.56-4.78,8.82-11.38,16.11-13.94,4.37-1.54,9.16-1.71,13.18-4.21,4.38-2.72,7.57-7,11.93-9.74,3-1.86,6.62-2.57,8.92-5.39,2.53-3.1,2.86-8,7.55-9a10.14,10.14,0,0,1,2.2-.22c1.92,0,3.87.39,5.8.39a10.23,10.23,0,0,0,2.27-.23,41.66,41.66,0,0,0,12.59-5.67c3.07-1.9,8.29-5.78,6.69-10-1.82-4.79-8.24-6.87-12.53-8.28-11.12-3.68-23.39-5-34.8-8.11-9-2.5-18.58-6.25-27.73-6.25Z" fill="#66687a"/>
        </g>
        <path d="M79.36,82.57c1.64-2,4-4.5,5.41-6.64,3.06-4.53,3.45-12.81,2.92-18.25-.56-5.75-3.09-11.15-4.4-16.74a5.66,5.66,0,0,1,3.54-6.73c2.83-1.12,6.14-.41,9,.3a20,20,0,0,1,7.51,3.67c.53.41,1.49,1.75,1.22,1.89a10,10,0,0,0-2.6.53c-6.43,2.81-7.24,9.57-6.1,15.24.59,2.91,1.42,10.21-2.21,17.08a24.58,24.58,0,0,1-8.4,8C82.55,82.39,79,83,79.36,82.57Z" fill="#4dcbf0"/>
      </g>
    </g>
  </g>
</svg>
