<svg id="Layer_1" data-name="Layer 1" xmlns="http://www.w3.org/2000/svg" xmlns:xlink="http://www.w3.org/1999/xlink" viewBox="0 0 134.15 134.15">
  <defs>
    <clipPath id="clip-path">
      <circle cx="67.07" cy="67.07" r="67.06" fill="none"/>
    </clipPath>
  </defs>
  <title>Blood elemetns</title>
  <g>
    <circle cx="67.07" cy="67.07" r="67.06" fill="#edf1ff"/>
    <g clip-path="url(#clip-path)">
      <g>
        <path d="M79.77,46.71,96,35.07a2.38,2.38,0,0,1,3.3.48l1.41,1.83a2.4,2.4,0,0,1-.42,3.33L84.09,54" fill="#fff" stroke="#66687a" stroke-miterlimit="10" stroke-width="2"/>
        <g>
          <path d="M-7.95,86.08c1-.69,2.83-2,6.38-4.64,5.62-4.11,14.11-10.32,15.3-11,8-4.29,15.89-9.07,23.48-13.68,3.22-2,6.44-3.92,9.69-5.86q2.64-1.57,5.24-3.2A141.74,141.74,0,0,1,65.84,40a5.36,5.36,0,0,1,2.33-.52c3.58,0,7.32,3.3,9.83,6.07,3.3,3.64,5.35,8.21,7.33,12.63l.79,1.75c1.9,4.16,2.94,7.07.27,9.52-8.57,7.85-18.53,14.4-28.17,20.73-4,2.64-8.14,5.36-12.12,8.13-2.89,2-5.8,4-8.72,6-7.17,4.9-14.58,10-21.55,15.36l-.1.07-.73.53Z" fill="#fff"/>
          <path d="M68.17,40.45c2.51,0,5.74,2,9.09,5.74,3.19,3.52,5.12,7.81,7.16,12.36L85,59.79l.23.52c1.93,4.24,2.61,6.44.5,8.37-8.51,7.8-18.44,14.33-28,20.64-4,2.64-8.16,5.36-12.14,8.14-2.89,2-5.85,4-8.71,6-7.18,4.9-14.6,10-21.57,15.36L-6.58,86.33c1.15-.82,2.88-2.09,5.55-4C4.24,78.43,13.07,72,14.2,71.36c8.07-4.3,15.93-9.09,23.53-13.71,3.16-1.93,6.44-3.92,9.68-5.85,1.78-1.06,3.55-2.15,5.26-3.21a138.67,138.67,0,0,1,13.6-7.72,4.43,4.43,0,0,1,1.9-.42m0-2a6.36,6.36,0,0,0-2.76.61c-6.69,3.18-12.69,7.25-19,11-11,6.58-21.77,13.46-33.13,19.52C11.2,70.7-9.1,85.82-9.33,85.82h0l24.14,35.92a11.1,11.1,0,0,1,1.63-1.31c9.74-7.52,20.14-14.29,30.23-21.33C60.2,89.67,74.86,81.34,87.06,70.16c3.57-3.27,1.43-7.44-.26-11.19-2.24-5-4.35-10-8.06-14.13-2.51-2.77-6.53-6.39-10.57-6.39Z" fill="#66687a"/>
        </g>
        <path d="M67,1A66,66,0,1,1,1,67,66.11,66.11,0,0,1,67,1m0-1a67,67,0,1,0,67,67A67,67,0,0,0,67,0Z" fill="#edf1ff"/>
        <path d="M112.58,75.77A10.24,10.24,0,0,1,111,81.12c-3.22,5.07-11,7.79-16.14,4-5.84-4.31-5-11.86-2.79-17.92,2-5.56,5.6-10.36,7.93-15.78-.15.34,5.82,7.15,6.49,8.2C109.23,63.85,112.74,70.13,112.58,75.77Z" fill="#ff8586"/>
      </g>
    </g>
  </g>
</svg>
