<svg id="Layer_1" data-name="Layer 1" xmlns="http://www.w3.org/2000/svg" xmlns:xlink="http://www.w3.org/1999/xlink" viewBox="0 0 134.15 134.15">
  <defs>
    <clipPath id="clip-path">
      <circle cx="67.07" cy="67.07" r="67.06" fill="none"/>
    </clipPath>
  </defs>
  <title>Lipid</title>
  <g>
    <g>
      <circle cx="67.07" cy="67.07" r="67.06" fill="#edf1ff"/>
      <g clip-path="url(#clip-path)">
        <g>
          <path d="M91.81,55c1.43-1.44,3.48-5.94,5.61-6.28s4.25,2.9,6.46,3.44,4.36-.29,4.82-2.76-1.22-3.46-2.88-4.88C96,36.18,84.53,28.83,76,19.13c-1.87-2.12-4.46-6.38-7.33-6a3.84,3.84,0,0,0-3,3.33c-.52,3.61,2.48,4.09,3.71,6.24s-1.51,4.65-3,5.95c-3.8,3.33-7.57,7.06-11,10.75q-3.45,3.72-6.87,7.49c-4.55,5-9,10.07-13.55,15.12C27.58,70.22,19.56,78.19,13,87,7.23,94.69-1.33,100.91-.46,111.73c1,12.37,14.7,16.13,25,13.27C32,123,44,109.06,49,103.57" fill="#fff" stroke="#66687a" stroke-linecap="round" stroke-miterlimit="10" stroke-width="2"/>
          <path d="M58.06,45.92A12.49,12.49,0,0,0,56.27,47c-1.8,1.35-2.47,3.25-4.05,4.77-4.83,4.68-9.86,9.11-14.15,14.32C31.57,74,24.48,81.32,17.46,88.73,13,93.44,8.8,97.74,8,104.56c-.8,7,5.93,12.09,12.32,12.79A16.53,16.53,0,0,0,34.28,112l1.27-1.38q14.79-16,29.38-32.29c5.81-6.45,11.68-12.86,17.29-19.48,1.65-1.94,5.08-4.79,5.89-7.29,1.08-3.32-7.61-4.27-9.74-4.68C71.85,45.63,64.33,42.71,58.06,45.92Z" fill="#ff8586"/>
        </g>
      </g>
    </g>
    <g>
      <g>
        <path d="M112.16,86.41c0,25.44-33.77,38.52-50.91,19.72a29.42,29.42,0,0,1-7.64-19.72c0-25.22,35.59-37.86,51.88-18.56a27.34,27.34,0,0,1,3.69,5.69A29.27,29.27,0,0,1,112.16,86.41Z" fill="#fff"/>
        <path d="M109.17,86.81a22.67,22.67,0,0,1-5.45,15c-7.37,8.41-20.38,12.22-31,8.22a22.15,22.15,0,0,1-9.63-7.08A25.08,25.08,0,0,1,60.6,75.73c7.46-13.91,26.71-19.41,39.3-9.11A26.3,26.3,0,0,1,109.17,86.81Z" fill="#fff" stroke="#66687a" stroke-miterlimit="10" stroke-width="1.87"/>
      </g>
      <g>
        <g>
          <circle cx="93.68" cy="82.2" r="7.28" fill="#ff8586"/>
          <path d="M98.18,82.2c0,4.23-4.5,4.5-4.5,4.5s3-1.89,3-4.6-3-4.41-3-4.41S98.18,78,98.18,82.2Z" fill="#de5051"/>
        </g>
        <g>
          <circle cx="76.67" cy="80.4" r="7.28" fill="#ff8586"/>
          <path d="M81.18,80.4c0,4.23-4.51,4.5-4.51,4.5s3-1.89,3-4.6-3-4.41-3-4.41S81.18,76.16,81.18,80.4Z" fill="#de5051"/>
        </g>
        <g>
          <circle cx="83.06" cy="97.23" r="7.28" fill="#4dcbf0"/>
          <path d="M87.56,97.23c0,4.23-4.5,4.5-4.5,4.5s3-1.89,3-4.6-3-4.41-3-4.41S87.56,93,87.56,97.23Z" fill="#bce9f6"/>
        </g>
      </g>
    </g>
  </g>
</svg>
