<svg id="Layer_1" data-name="Layer 1" xmlns="http://www.w3.org/2000/svg" xmlns:xlink="http://www.w3.org/1999/xlink" viewBox="0 0 134.13 134.13">
  <defs>
    <clipPath id="clip-path">
      <circle cx="67.06" cy="67" r="67" fill="#edf1ff"/>
    </clipPath>
  </defs>
  <title>Thyroid</title>
  <g>
    <circle cx="67.06" cy="67" r="67" fill="#edf1ff"/>
    <g clip-path="url(#clip-path)">
      <g>
        <g>
          <path d="M53.55,146.36a5.61,5.61,0,0,1-1.32-.13l-1.75-.42c-7.12-1.72-14.49-3.5-20.49-7-3.77-2.18-7.32-7.35-10.74-12.35-3.31-4.82-6.73-9.81-10.49-12.3C-.06,108.36-12.64,95.35-11.88,83c6.79-1.76,14-2.3,21.05-2.82,4.75-.36,9.66-.72,14.39-1.47,10.22-1.61,17.14-8.31,18.49-17.91.89-6.26,1-19,1-25.85V33.87c0-2.69.05-7,.07-9l52.83.26c-.17,2.27-.57,7.55-.68,9.78-.2,4-.66,14.13-.62,22.15,0,5.34.69,12,5.67,15.87,4,3.17,8.81,4.27,13.4,5.33,1.05.25,2.1.49,3.15.76A154.27,154.27,0,0,0,137,82.64c1.32.16,1.69.3,1.77.4a5.12,5.12,0,0,1-.31,2.1,23.17,23.17,0,0,1-2.76,5.93,22.23,22.23,0,0,0-2.18,5.31c-.15.47-.3,1-.48,1.47s-.2.63,3.09,5.26c.94,1.33,2.17,3.06,2.66,3.84-.29.36-.69.46-1.44.63a5.45,5.45,0,0,0-2.9,1.41,26.21,26.21,0,0,1-4.26,3.17c-2.3,1.49-4.68,3-6.09,5.17a17.53,17.53,0,0,0-2.11,5.76c-.61,2.53-1.19,4.92-3.08,6.24-11.41,7.93-20,12.57-26.28,14.18a45.39,45.39,0,0,1-9.43,1c-1.78.07-3.62.14-5.42.32a16.46,16.46,0,0,1-1.84.1,27.86,27.86,0,0,1-4.08-.37,31.16,31.16,0,0,0-4.78-.43l-.83,0a34.06,34.06,0,0,0-5.75,1A34.64,34.64,0,0,1,53.55,146.36Z" fill="#fff"/>
          <path d="M140,107c.12-.27-6-8.51-5.94-8.8a30.17,30.17,0,0,1,2.57-6.59,23.71,23.71,0,0,0,2.87-6.19c.76-3,.54-3.41-2.31-3.74a153,153,0,0,1-20-3.59c-5.63-1.44-11.42-2.18-16.18-5.91-4.55-3.56-5.27-9.69-5.29-15.08,0-6.67.28-15.44.62-22.1.14-2.89.76-10.82.76-10.82l-54.9-.27s-.06,6.43-.08,10c0,6.6,0,20.3-1,26.84-1.34,9.54-8.23,15.58-17.66,17.06-11.87,1.88-24.54,1.3-36.22,4.5-1.29,12.52,11.14,26.22,21,32.77,7.44,4.92,13.6,20.23,21.28,24.67,6.64,3.84,15,5.67,22.5,7.5,3.48.85,10.7-1.92,14.32-2,4.64-.16,7,1.14,11.6.68,5-.51,10.18-.13,15-1.36,8.47-2.17,19.51-9.4,26.6-14.33,3.79-2.63,2.93-8.45,5.45-12.27,2.24-3.4,7.35-5.3,10.23-8.18C136.88,108,139,109.11,140,107Z" fill="#fff"/>
          <path d="M44.1,25.89l50.76.25c-.19,2.57-.5,6.76-.6,8.73-.2,4-.66,14.15-.62,22.21,0,5.56.74,12.48,6.06,16.64,4.22,3.31,9.08,4.44,13.79,5.53,1,.24,2.09.48,3.12.75a154.62,154.62,0,0,0,20.3,3.63l.87.13c-.05.25-.13.61-.26,1.14a22.37,22.37,0,0,1-2.65,5.66,23.6,23.6,0,0,0-2.28,5.52c-.14.46-.3,1-.46,1.46-.37,1.1-.37,1.1,3.21,6.15.65.91,1.44,2,2,2.87l-.2,0a6.32,6.32,0,0,0-3.38,1.67,25.8,25.8,0,0,1-4.11,3c-2.38,1.54-4.85,3.14-6.38,5.46a18.61,18.61,0,0,0-2.25,6.07c-.58,2.45-1.09,4.56-2.68,5.66-11.31,7.86-19.79,12.45-25.95,14a43.92,43.92,0,0,1-9.21,1c-1.8.07-3.66.14-5.5.33a17,17,0,0,1-1.73.09,27.59,27.59,0,0,1-3.93-.36,31.54,31.54,0,0,0-4.93-.44l-.87,0a34.58,34.58,0,0,0-5.94,1.06,34.43,34.43,0,0,1-6.75,1.14,4.66,4.66,0,0,1-1.08-.1l-1.76-.43c-7.05-1.7-14.34-3.46-20.22-6.86-3.57-2.07-7-7.14-10.42-12s-6.84-10-10.76-12.56C-.83,106.65-11,94.25-10.9,83.83c6.49-1.6,13.42-2.12,20.14-2.62,4.77-.35,9.71-.72,14.47-1.47C34.4,78.05,41.62,71,43,61c.9-6.32,1-19.12,1-26V33.87c0-2.29,0-5.8.06-8m-2-2s-.06,6.43-.08,10c0,6.6,0,20.3-1,26.84-1.34,9.54-8.23,15.58-17.66,17.06-11.87,1.88-24.54,1.3-36.22,4.5-1.29,12.52,11.14,26.22,21,32.77,7.44,4.92,13.6,20.23,21.28,24.67,6.64,3.84,15,5.67,22.5,7.5a6.29,6.29,0,0,0,1.56.16c3.77,0,9.62-2.09,12.76-2.2l.8,0c3.47,0,5.7.8,8.86.8a19.26,19.26,0,0,0,1.94-.1c5-.51,10.18-.13,15-1.36,8.47-2.17,19.51-9.4,26.6-14.33,3.79-2.63,2.93-8.45,5.45-12.27,2.24-3.4,7.35-5.3,10.23-8.18,1.69-1.69,3.82-.59,4.77-2.73.12-.27-6-8.51-5.94-8.8a30.17,30.17,0,0,1,2.57-6.59,23.71,23.71,0,0,0,2.87-6.19c.76-3,.54-3.41-2.31-3.74a153,153,0,0,1-20-3.59c-5.63-1.44-11.42-2.18-16.18-5.91-4.55-3.56-5.27-9.69-5.29-15.08,0-6.67.28-15.44.62-22.1.14-2.89.76-10.82.76-10.82l-54.9-.27Z" fill="#66687a"/>
        </g>
        <g>
          <path d="M69.28,38.54c-13.85,0-24.37-4-31.29-11.78C27.58,15,28.65-2,28.9-4.68,31-6.61,46.21-19.46,70.29-19.46a68.38,68.38,0,0,1,30.15,6.79,49.67,49.67,0,0,1,10.23,6.55c.18,2.83.85,20.73-10.19,32.89C93.38,34.58,82.89,38.54,69.28,38.54Z" fill="#fff"/>
          <path d="M70.29-18.46C92.93-18.46,106.8-8,109.7-5.63c.19,3.75.36,20.36-10,31.74-6.9,7.58-17.14,11.43-30.45,11.43-13.54,0-23.8-3.84-30.52-11.42C29,15.12,29.59-.68,29.86-4.2A63.3,63.3,0,0,1,70.29-18.46m0-2c-26.65,0-42.35,15.3-42.35,15.3s-5.53,44.7,41.34,44.7S111.64-6.6,111.64-6.6,96.94-20.46,70.29-20.46Z" fill="#66687a"/>
        </g>
        <path d="M67,1A66,66,0,1,1,1,67,66.11,66.11,0,0,1,67,1m0-1a67,67,0,1,0,67,67A67,67,0,0,0,67,0Z" fill="#edf1ff"/>
        <path d="M75.61,65.43c.44-4.4,3.62-23.88-4.8-21.09-3.46,1.16-6.81.08-10.26.09-4.71,0-4.47,6.2-4.25,9.48a161.21,161.21,0,0,1,.52,16.59,148.2,148.2,0,0,1-1.39,14.77c-1.1,8.34-2.33,13-2.43,21.49,0,2.12-.3,4.42,1.41,5.44,1.05.62,3.51.12,4.75.3,2.46.35,4.74,1.08,7.27,1.08,3.46,0,6.23-1.33,9.16-3,3.39-2,3.74-4.08,3.58-8.06-.35-8.64-4.16-17.14-3.94-25.74C75.33,73,75.23,69.2,75.61,65.43Z" fill="#4dcbf0"/>
        <path d="M83,73.48a5.05,5.05,0,0,1-2.84,1.41c-2.77.42-5.08-1.66-6.84-3.52-3-3.13-7.59-4.93-11.4-2.12-2.64,2-5.18,6-9,4.86C48.44,72.77,47.2,68,47,63.81a47.69,47.69,0,0,1,.89-9.75,16.24,16.24,0,0,1,1.15-4.77,2.51,2.51,0,0,1,3.28-1.36C55,49,55.81,53.08,56.65,55.46c1,2.77,1.74,8.81,6.11,5,1.95-1.69,3.75-2.41,5.94-.33,4.48,4.28,6.39-2.1,7.4-4.52,1.1-2.59,2.27-5.42,4.63-7.11,2.7-1.93,3.76,3.59,4.06,5.16a48,48,0,0,1,.88,11.15C85.55,67.74,85.16,71.3,83,73.48Z" fill="#ff8586"/>
        <path d="M61.18,55.83a14.41,14.41,0,0,1,4.06-2.53c2.29-.66,3.81.87,5.82,1.65" fill="none" stroke="#fdffff" stroke-linecap="round" stroke-miterlimit="10" stroke-width="1.89"/>
        <path d="M61.18,88.23a14.18,14.18,0,0,1,4.06-2.53c2.29-.67,3.81.87,5.82,1.64" fill="none" stroke="#fdffff" stroke-linecap="round" stroke-miterlimit="10" stroke-width="1.89"/>
        <path d="M59.72,103.11c1.5-1.14,3.4-2.75,5.26-3.28C68,99,69.92,101,72.52,102" fill="none" stroke="#fdffff" stroke-linecap="round" stroke-miterlimit="10" stroke-width="2.45"/>
        <path d="M62.59,76.12c1.7-1.89,5.8-2.45,8-.59" fill="none" stroke="#fdffff" stroke-linecap="round" stroke-miterlimit="10" stroke-width="1.89"/>
      </g>
    </g>
  </g>
</svg>
